<svg xmlns="http://www.w3.org/2000/svg" xmlns:xlink="http://www.w3.org/1999/xlink" id="Layer_1" data-name="Layer 1" viewBox="0 0 152 152"><defs><style>.cls-1{fill:#fff}.cls-2{fill:url(#linear-gradient)}.cls-3{fill:url(#linear-gradient-2)}.cls-4{fill:url(#linear-gradient-3)}.cls-5{fill:#e3f2fd}.cls-5,.cls-6,.cls-7,.cls-8,.cls-9{opacity:.5}.cls-6{fill:#0d47a1}.cls-7{fill:#90caf9}.cls-8{fill:#82b1ff}.cls-9{fill:#1e88e5}</style><linearGradient id="linear-gradient" x1="78.19" x2="47.87" y1="99.33" y2="64.67" gradientUnits="userSpaceOnUse"><stop offset=".01" stop-color="#e3f2fd" stop-opacity=".5"/><stop offset=".99" stop-color="#82b1ff" stop-opacity=".5"/></linearGradient><linearGradient id="linear-gradient-2" x1="79.37" x2="98.58" y1="96.69" y2="67.08" gradientUnits="userSpaceOnUse"><stop offset="0" stop-color="#e3f2fd" stop-opacity=".5"/><stop offset=".99" stop-color="#82b1ff" stop-opacity=".5"/></linearGradient><linearGradient id="linear-gradient-3" x1="46.67" x2="104.81" y1="59.26" y2="59.26" gradientUnits="userSpaceOnUse"><stop offset=".05" stop-color="#82b1ff" stop-opacity=".5"/><stop offset=".41" stop-color="#cee4fd" stop-opacity=".5"/><stop offset=".51" stop-color="#e3f2fd" stop-opacity=".5"/><stop offset=".95" stop-color="#82b1ff" stop-opacity=".5"/></linearGradient></defs><title>Logo-CD-Blue_152</title><rect width="152" height="152" class="cls-1" rx="12.3"/><polygon points="46.67 58.91 76.22 69.72 76.22 103.21 46.67 90.65 46.67 58.91" class="cls-2"/><polygon points="104.81 58.91 104.09 90.42 76.22 103.21 76.22 69.72 104.81 58.91" class="cls-3"/><polygon points="76.22 48.79 104.81 58.91 76.22 69.72 46.67 58.91 76.22 48.79" class="cls-4"/><polygon points="75.8 74.19 119.28 29.91 134.36 96.63 75.8 74.19" class="cls-5"/><polygon points="32.2 30.28 76 16 119.28 29.91 75.8 74.19 32.2 30.28" class="cls-6"/><polygon points="75.8 74.19 17.64 96.98 32.2 30.28 75.8 74.19" class="cls-7"/><polygon points="75.8 74.19 76 136 17.64 96.98 75.8 74.19" class="cls-8"/><polygon points="75.8 74.19 134.36 96.63 76 136 75.8 74.19" class="cls-9"/><path d="M638.26,495.83c44.92,1.48,62.69,17.86,73.36,35.89,0,0-45.91-20.86-67.46-19.36a111.69,111.69,0,0,0-31.77,3.22c-17.24,4.29-44.77,16.14-44.77,16.14S592.65,494.32,638.26,495.83Z" class="cls-1" transform="translate(-563.62 -435.72)"/><rect width="24.5" height="31.99" x="64.43" y="53.23" class="cls-1" rx="6.47"/><rect width="12.93" height="25.66" x="70.21" y="84.04" class="cls-1"/><rect width="17.92" height="43.26" x="67.83" y="108.74" class="cls-1" rx="5.7"/></svg>